<svg xmlns="http://www.w3.org/2000/svg" viewBox="0 0 64 64" width="64" height="64">
  <defs>
    <linearGradient id="tileBg" x1="0" x2="1" y1="0" y2="1">
      <stop offset="0%" stop-color="#0B1020"/>
      <stop offset="100%" stop-color="#121C36"/>
    </linearGradient>
    <linearGradient id="goldGrad" x1="0" x2="0" y1="0" y2="1">
      <stop offset="0%" stop-color="#f6e39f"/>
      <stop offset="45%" stop-color="#eac35c"/>
      <stop offset="80%" stop-color="#c49b3f"/>
      <stop offset="100%" stop-color="#7a5a1e"/>
    </linearGradient>
    <linearGradient id="goldHighlight" x1="0" x2="0" y1="0" y2="1">
      <stop offset="0%" stop-color="#ffffff" stop-opacity="0.3"/>
      <stop offset="60%" stop-color="#ffffff" stop-opacity="0.08"/>
      <stop offset="100%" stop-color="#ffffff" stop-opacity="0"/>
    </linearGradient>
    <linearGradient id="tileGloss" x1="0" x2="0" y1="0" y2="1">
      <stop offset="0%" stop-color="#ffffff" stop-opacity="0.15"/>
      <stop offset="70%" stop-color="#ffffff" stop-opacity="0"/>
    </linearGradient>
    <clipPath id="tileClip">
      <rect x="8" y="8" width="48" height="48" rx="10" ry="10"/>
    </clipPath>
    <filter id="sShadow" x="-20%" y="-20%" width="140%" height="140%">
      <feDropShadow dx="0" dy="1.5" stdDeviation="1.8" flood-color="#000000" flood-opacity="0.4"/>
    </filter>
  </defs>
  
  <!-- Tile background -->
  <rect x="8" y="8" width="48" height="48" rx="10" ry="10" fill="url(#tileBg)"/>
  
  <!-- Tile border -->
  <rect x="8" y="8" width="48" height="48" rx="10" ry="10" fill="none" stroke="#1B2746" stroke-width="2"/>
  <rect x="11" y="11" width="42" height="42" rx="8" ry="8" fill="none" stroke="#263659" stroke-width="1.5"/>
  
  <!-- Tile gloss effect -->
  <g clip-path="url(#tileClip)">
    <rect x="8" y="8" width="48" height="22" fill="url(#tileGloss)"/>
  </g>
  
  <!-- Gold S shape -->
  <g filter="url(#sShadow)">
    <path d="M 20 18 H 44 V 26 H 28 V 30 H 44 V 46 H 20 V 38 H 36 V 34 H 20 Z"
          fill="url(#goldGrad)" 
          stroke="#7a5a1e" 
          stroke-width="1.25"/>
  </g>
  
  <!-- S highlight for beveled effect -->
  <path d="M 20 18 H 44 V 26 H 28 V 30 H 44 V 46 H 20 V 38 H 36 V 34 H 20 Z"
        fill="url(#goldHighlight)"/>
</svg>