<svg xmlns="http://www.w3.org/2000/svg" viewBox="0 0 32 32" width="32" height="32">
  <defs>
    <linearGradient id="goldGrad" x1="0" x2="0" y1="0" y2="1">
      <stop offset="0%" stop-color="#f6e39f"/>
      <stop offset="45%" stop-color="#eac35c"/>
      <stop offset="80%" stop-color="#c49b3f"/>
      <stop offset="100%" stop-color="#7a5a1e"/>
    </linearGradient>
    <linearGradient id="goldHighlight" x1="0" x2="0" y1="0" y2="1">
      <stop offset="0%" stop-color="#ffffff" stop-opacity="0.4"/>
      <stop offset="60%" stop-color="#ffffff" stop-opacity="0.1"/>
      <stop offset="100%" stop-color="#ffffff" stop-opacity="0"/>
    </linearGradient>
    <filter id="innerShadow" x="-50%" y="-50%" width="200%" height="200%">
      <feDropShadow dx="0" dy="1" stdDeviation="0.8" flood-color="#5a4015" flood-opacity="0.6"/>
    </filter>
  </defs>
  
  <!-- Main S shape with beveled gold look -->
  <path d="M 8 6 H 24 V 10 H 12 V 12 H 22 C 23.1 12 24 12.9 24 14 V 18 C 24 19.1 23.1 20 22 20 H 8 V 16 H 20 V 14 H 10 C 8.9 14 8 13.1 8 12 V 8 C 8 6.9 8.9 6 10 6 Z" 
        fill="url(#goldGrad)" 
        stroke="#7a5a1e" 
        stroke-width="1.2" 
        filter="url(#innerShadow)"/>
  
  <!-- Top highlight for beveled effect -->
  <path d="M 8 6 H 24 V 10 H 12 V 12 H 22 C 23.1 12 24 12.9 24 14 V 18 C 24 19.1 23.1 20 22 20 H 8 V 16 H 20 V 14 H 10 C 8.9 14 8 13.1 8 12 V 8 C 8 6.9 8.9 6 10 6 Z" 
        fill="url(#goldHighlight)"/>
</svg>