<svg xmlns="http://www.w3.org/2000/svg" viewBox="0 0 64 64" width="64" height="64">
  <defs>
    <linearGradient id="tilebg" x1="0" x2="1" y1="0" y2="1">
      <stop offset="0%" stop-color="#0B1020"/>
      <stop offset="100%" stop-color="#121C36"/>
    </linearGradient>
    <linearGradient id="sgrad" x1="0" x2="0" y1="0" y2="1">
      <stop offset="0%" stop-color="#CFFCEB"/>
      <stop offset="55%" stop-color="#7FF0C6"/>
      <stop offset="100%" stop-color="#59D8B1"/>
    </linearGradient>
    <linearGradient id="gloss" x1="0" x2="0" y1="0" y2="1">
      <stop offset="0%" stop-color="#FFFFFF" stop-opacity="0.20"/>
      <stop offset="70%" stop-color="#FFFFFF" stop-opacity="0.00"/>
    </linearGradient>
    <clipPath id="tileClip">
      <rect x="8" y="8" width="48" height="48" rx="10" ry="10"/>
    </clipPath>
    <filter id="sShadow" x="-20%" y="-20%" width="140%" height="140%">
      <feDropShadow dx="0" dy="1.2" stdDeviation="1.6" flood-color="#000000" flood-opacity="0.35"/>
    </filter>
  </defs>
  <rect x="8" y="8" width="48" height="48" rx="10" ry="10" fill="url(#tilebg)"/>
  <rect x="8" y="8" width="48" height="48" rx="10" ry="10" fill="none" stroke="#1B2746" stroke-width="2"/>
  <rect x="11" y="11" width="42" height="42" rx="8" ry="8" fill="none" stroke="#263659" stroke-width="1.5"/>
  <g clip-path="url(#tileClip)">
    <rect x="8" y="8" width="48" height="22" fill="url(#gloss)"/>
  </g>
  <g filter="url(#sShadow)">
    <path d="M 20 18 H 44 V 26 H 28 V 30 H 44 V 46 H 20 V 38 H 36 V 34 H 20 Z"
          fill="url(#sgrad)" stroke="#0A1325" stroke-width="1.25" />
  </g>
  <g transform="translate(48,18) rotate(18)">
    <path d="M0,-2.4 L2.4,0 L0,2.4 L-2.4,0 Z" fill="#BFFBE9" stroke="#7FF0C6" stroke-width="0.6"/>
  </g>
</svg>